<?xml version="1.0" encoding="UTF-8" standalone="no"?>
<!DOCTYPE svg PUBLIC "-//W3C//DTD SVG 1.1//EN"
 "http://www.w3.org/Graphics/SVG/1.1/DTD/svg11.dtd">
<!-- Generated by graphviz version 2.40.1 (20161225.0304)
 -->
<!-- Title: DFA Pages: 1 -->
<svg width="4323pt" height="479pt"
 viewBox="0.00 0.00 4322.68 479.00" xmlns="http://www.w3.org/2000/svg" xmlns:xlink="http://www.w3.org/1999/xlink">
<g id="graph0" class="graph" transform="scale(1 1) rotate(0) translate(4 475)">
<title>DFA</title>
<polygon fill="#ffffff" stroke="transparent" points="-4,4 -4,-475 4318.6805,-475 4318.6805,4 -4,4"/>
<!-- 0 -->
<g id="node1" class="node">
<title>0</title>
<ellipse fill="none" stroke="#000000" cx="142.3374" cy="-192" rx="142.1749" ry="18"/>
<text text-anchor="middle" x="142.3374" y="-188.3" font-family="Times,serif" font-size="14.00" fill="#000000">/apples/address/ HTTP: GET</text>
</g>
<!-- 1 -->
<g id="node2" class="node">
<title>1</title>
<ellipse fill="none" stroke="#000000" cx="429.3374" cy="-192" rx="126.978" ry="18"/>
<text text-anchor="middle" x="429.3374" y="-188.3" font-family="Times,serif" font-size="14.00" fill="#000000">/apples/address/ HTTP: *</text>
</g>
<!-- 2 -->
<g id="node3" class="node">
<title>2</title>
<ellipse fill="none" stroke="#000000" cx="429.3374" cy="-279" rx="86.3847" ry="18"/>
<text text-anchor="middle" x="429.3374" y="-275.3" font-family="Times,serif" font-size="14.00" fill="#000000">/apples/address/</text>
</g>
<!-- 2&#45;&gt;0 -->
<g id="edge1" class="edge">
<title>2&#45;&gt;0</title>
<path fill="none" stroke="#000000" d="M380.3264,-264.143C332.5727,-249.6672 259.688,-227.5732 207.1605,-211.6502"/>
<polygon fill="#000000" stroke="#000000" points="207.8557,-208.2037 197.2704,-208.6522 205.8249,-214.9027 207.8557,-208.2037"/>
<text text-anchor="middle" x="344.3374" y="-231.8" font-family="Times,serif" font-size="14.00" fill="#000000">HTTP: GET</text>
</g>
<!-- 2&#45;&gt;1 -->
<g id="edge2" class="edge">
<title>2&#45;&gt;1</title>
<path fill="none" stroke="#000000" d="M429.3374,-260.9735C429.3374,-249.1918 429.3374,-233.5607 429.3374,-220.1581"/>
<polygon fill="#000000" stroke="#000000" points="432.8375,-220.0033 429.3374,-210.0034 425.8375,-220.0034 432.8375,-220.0033"/>
<text text-anchor="middle" x="458.3374" y="-231.8" font-family="Times,serif" font-size="14.00" fill="#000000">HTTP: *</text>
</g>
<!-- 3 -->
<g id="node4" class="node">
<title>3</title>
<ellipse fill="none" stroke="#000000" cx="351.3374" cy="-105" rx="164.3708" ry="18"/>
<text text-anchor="middle" x="351.3374" y="-101.3" font-family="Times,serif" font-size="14.00" fill="#000000">/apples/nested/thing/ HTTP: GET</text>
</g>
<!-- 4 -->
<g id="node5" class="node">
<title>4</title>
<ellipse fill="none" stroke="#000000" cx="682.3374" cy="-105" rx="148.6738" ry="18"/>
<text text-anchor="middle" x="682.3374" y="-101.3" font-family="Times,serif" font-size="14.00" fill="#000000">/apples/nested/thing/ HTTP: *</text>
</g>
<!-- 5 -->
<g id="node6" class="node">
<title>5</title>
<ellipse fill="none" stroke="#000000" cx="682.3374" cy="-192" rx="108.5808" ry="18"/>
<text text-anchor="middle" x="682.3374" y="-188.3" font-family="Times,serif" font-size="14.00" fill="#000000">/apples/nested/thing/</text>
</g>
<!-- 5&#45;&gt;3 -->
<g id="edge3" class="edge">
<title>5&#45;&gt;3</title>
<path fill="none" stroke="#000000" d="M624.3028,-176.7462C568.7154,-162.1356 484.6318,-140.0351 424.4851,-124.2261"/>
<polygon fill="#000000" stroke="#000000" points="425.2328,-120.8038 414.6715,-121.6467 423.4533,-127.5739 425.2328,-120.8038"/>
<text text-anchor="middle" x="578.3374" y="-144.8" font-family="Times,serif" font-size="14.00" fill="#000000">HTTP: GET</text>
</g>
<!-- 5&#45;&gt;4 -->
<g id="edge4" class="edge">
<title>5&#45;&gt;4</title>
<path fill="none" stroke="#000000" d="M682.3374,-173.9735C682.3374,-162.1918 682.3374,-146.5607 682.3374,-133.1581"/>
<polygon fill="#000000" stroke="#000000" points="685.8375,-133.0033 682.3374,-123.0034 678.8375,-133.0034 685.8375,-133.0033"/>
<text text-anchor="middle" x="711.3374" y="-144.8" font-family="Times,serif" font-size="14.00" fill="#000000">HTTP: *</text>
</g>
<!-- 6 -->
<g id="node7" class="node">
<title>6</title>
<ellipse fill="none" stroke="#000000" cx="689.3374" cy="-279" rx="81.4863" ry="18"/>
<text text-anchor="middle" x="689.3374" y="-275.3" font-family="Times,serif" font-size="14.00" fill="#000000">/apples/nested/</text>
</g>
<!-- 6&#45;&gt;5 -->
<g id="edge5" class="edge">
<title>6&#45;&gt;5</title>
<path fill="none" stroke="#000000" d="M687.887,-260.9735C686.939,-249.1918 685.6813,-233.5607 684.603,-220.1581"/>
<polygon fill="#000000" stroke="#000000" points="688.0767,-219.6904 683.7859,-210.0034 681.0993,-220.2519 688.0767,-219.6904"/>
<text text-anchor="middle" x="707.8374" y="-231.8" font-family="Times,serif" font-size="14.00" fill="#000000">/thing</text>
</g>
<!-- 7 -->
<g id="node8" class="node">
<title>7</title>
<ellipse fill="none" stroke="#000000" cx="792.3374" cy="-18" rx="185.4674" ry="18"/>
<text text-anchor="middle" x="792.3374" y="-14.3" font-family="Times,serif" font-size="14.00" fill="#000000">/apples/some/other/thing/ HTTP: GET</text>
</g>
<!-- 8 -->
<g id="node9" class="node">
<title>8</title>
<ellipse fill="none" stroke="#000000" cx="1165.3374" cy="-18" rx="169.77" ry="18"/>
<text text-anchor="middle" x="1165.3374" y="-14.3" font-family="Times,serif" font-size="14.00" fill="#000000">/apples/some/other/thing/ HTTP: *</text>
</g>
<!-- 9 -->
<g id="node10" class="node">
<title>9</title>
<ellipse fill="none" stroke="#000000" cx="978.3374" cy="-105" rx="129.1772" ry="18"/>
<text text-anchor="middle" x="978.3374" y="-101.3" font-family="Times,serif" font-size="14.00" fill="#000000">/apples/some/other/thing/</text>
</g>
<!-- 9&#45;&gt;7 -->
<g id="edge6" class="edge">
<title>9&#45;&gt;7</title>
<path fill="none" stroke="#000000" d="M941.1445,-87.6033C911.9375,-73.942 871.0771,-54.8299 839.5609,-40.0884"/>
<polygon fill="#000000" stroke="#000000" points="840.6443,-36.7313 830.1033,-35.6647 837.6785,-43.072 840.6443,-36.7313"/>
<text text-anchor="middle" x="938.3374" y="-57.8" font-family="Times,serif" font-size="14.00" fill="#000000">HTTP: GET</text>
</g>
<!-- 9&#45;&gt;8 -->
<g id="edge7" class="edge">
<title>9&#45;&gt;8</title>
<path fill="none" stroke="#000000" d="M1015.7302,-87.6033C1045.2208,-73.8831 1086.5286,-54.665 1118.2691,-39.8981"/>
<polygon fill="#000000" stroke="#000000" points="1119.778,-43.0564 1127.3684,-35.6647 1116.8252,-36.7096 1119.778,-43.0564"/>
<text text-anchor="middle" x="1112.3374" y="-57.8" font-family="Times,serif" font-size="14.00" fill="#000000">HTTP: *</text>
</g>
<!-- 10 -->
<g id="node11" class="node">
<title>10</title>
<ellipse fill="none" stroke="#000000" cx="911.3374" cy="-192" rx="102.0819" ry="18"/>
<text text-anchor="middle" x="911.3374" y="-188.3" font-family="Times,serif" font-size="14.00" fill="#000000">/apples/some/other/</text>
</g>
<!-- 10&#45;&gt;9 -->
<g id="edge8" class="edge">
<title>10&#45;&gt;9</title>
<path fill="none" stroke="#000000" d="M925.2198,-173.9735C934.7423,-161.6085 947.53,-145.0036 958.1721,-131.1847"/>
<polygon fill="#000000" stroke="#000000" points="961.1442,-133.0618 964.4727,-123.0034 955.5982,-128.7907 961.1442,-133.0618"/>
<text text-anchor="middle" x="970.8374" y="-144.8" font-family="Times,serif" font-size="14.00" fill="#000000">/thing</text>
</g>
<!-- 11 -->
<g id="node12" class="node">
<title>11</title>
<ellipse fill="none" stroke="#000000" cx="876.3374" cy="-279" rx="74.187" ry="18"/>
<text text-anchor="middle" x="876.3374" y="-275.3" font-family="Times,serif" font-size="14.00" fill="#000000">/apples/some/</text>
</g>
<!-- 11&#45;&gt;10 -->
<g id="edge9" class="edge">
<title>11&#45;&gt;10</title>
<path fill="none" stroke="#000000" d="M883.5894,-260.9735C888.423,-248.9585 894.8672,-232.9401 900.3286,-219.3646"/>
<polygon fill="#000000" stroke="#000000" points="903.6094,-220.5871 904.0946,-210.0034 897.1152,-217.9744 903.6094,-220.5871"/>
<text text-anchor="middle" x="917.8374" y="-231.8" font-family="Times,serif" font-size="14.00" fill="#000000">/other</text>
</g>
<!-- 12 -->
<g id="node13" class="node">
<title>12</title>
<ellipse fill="none" stroke="#000000" cx="1071.3374" cy="-279" rx="102.8821" ry="18"/>
<text text-anchor="middle" x="1071.3374" y="-275.3" font-family="Times,serif" font-size="14.00" fill="#000000">/apples/ HTTP: GET</text>
</g>
<!-- 13 -->
<g id="node14" class="node">
<title>13</title>
<ellipse fill="none" stroke="#000000" cx="1279.3374" cy="-279" rx="87.1846" ry="18"/>
<text text-anchor="middle" x="1279.3374" y="-275.3" font-family="Times,serif" font-size="14.00" fill="#000000">/apples/ HTTP: *</text>
</g>
<!-- 14 -->
<g id="node15" class="node">
<title>14</title>
<ellipse fill="none" stroke="#000000" cx="1012.3374" cy="-366" rx="46.5926" ry="18"/>
<text text-anchor="middle" x="1012.3374" y="-362.3" font-family="Times,serif" font-size="14.00" fill="#000000">/apples/</text>
</g>
<!-- 14&#45;&gt;2 -->
<g id="edge10" class="edge">
<title>14&#45;&gt;2</title>
<path fill="none" stroke="#000000" d="M968.5151,-359.6129C919.4904,-352.4554 837.7122,-340.4797 767.3374,-330 679.1237,-316.8639 577.9972,-301.5748 509.5199,-291.1877"/>
<polygon fill="#000000" stroke="#000000" points="509.6503,-287.6675 499.2384,-289.6277 508.6002,-294.5883 509.6503,-287.6675"/>
<text text-anchor="middle" x="797.8374" y="-318.8" font-family="Times,serif" font-size="14.00" fill="#000000">/address</text>
</g>
<!-- 14&#45;&gt;6 -->
<g id="edge11" class="edge">
<title>14&#45;&gt;6</title>
<path fill="none" stroke="#000000" d="M973.6969,-355.5922C918.5084,-340.7272 816.542,-313.2625 750.889,-295.5789"/>
<polygon fill="#000000" stroke="#000000" points="751.6427,-292.1572 741.0765,-292.9359 749.8221,-298.9164 751.6427,-292.1572"/>
<text text-anchor="middle" x="896.8374" y="-318.8" font-family="Times,serif" font-size="14.00" fill="#000000">/nested</text>
</g>
<!-- 14&#45;&gt;11 -->
<g id="edge12" class="edge">
<title>14&#45;&gt;11</title>
<path fill="none" stroke="#000000" d="M988.0233,-350.4461C966.6567,-336.7778 935.3109,-316.7257 911.2618,-301.3413"/>
<polygon fill="#000000" stroke="#000000" points="913.0736,-298.3455 902.7637,-295.9051 909.3015,-304.2422 913.0736,-298.3455"/>
<text text-anchor="middle" x="974.8374" y="-318.8" font-family="Times,serif" font-size="14.00" fill="#000000">/some</text>
</g>
<!-- 14&#45;&gt;12 -->
<g id="edge13" class="edge">
<title>14&#45;&gt;12</title>
<path fill="none" stroke="#000000" d="M1024.2769,-348.3943C1032.6186,-336.0938 1043.9055,-319.4503 1053.3347,-305.5463"/>
<polygon fill="#000000" stroke="#000000" points="1056.4971,-307.119 1059.2131,-296.8782 1050.7036,-303.1901 1056.4971,-307.119"/>
<text text-anchor="middle" x="1087.3374" y="-318.8" font-family="Times,serif" font-size="14.00" fill="#000000">HTTP: GET</text>
</g>
<!-- 14&#45;&gt;13 -->
<g id="edge14" class="edge">
<title>14&#45;&gt;13</title>
<path fill="none" stroke="#000000" d="M1050.0288,-355.1388C1073.7329,-348.198 1104.9153,-338.8658 1132.3374,-330 1163.6069,-319.8903 1198.3542,-307.8718 1226.2121,-298.0417"/>
<polygon fill="#000000" stroke="#000000" points="1227.5018,-301.2981 1235.7615,-294.6627 1225.1667,-294.699 1227.5018,-301.2981"/>
<text text-anchor="middle" x="1206.3374" y="-318.8" font-family="Times,serif" font-size="14.00" fill="#000000">HTTP: *</text>
</g>
<!-- 15 -->
<g id="node16" class="node">
<title>15</title>
<ellipse fill="none" stroke="#000000" cx="1182.3374" cy="-192" rx="150.5735" ry="18"/>
<text text-anchor="middle" x="1182.3374" y="-188.3" font-family="Times,serif" font-size="14.00" fill="#000000">/bananas/address/ HTTP: GET</text>
</g>
<!-- 16 -->
<g id="node17" class="node">
<title>16</title>
<ellipse fill="none" stroke="#000000" cx="1486.3374" cy="-192" rx="135.3763" ry="18"/>
<text text-anchor="middle" x="1486.3374" y="-188.3" font-family="Times,serif" font-size="14.00" fill="#000000">/bananas/address/ HTTP: *</text>
</g>
<!-- 17 -->
<g id="node18" class="node">
<title>17</title>
<ellipse fill="none" stroke="#000000" cx="1486.3374" cy="-279" rx="94.7833" ry="18"/>
<text text-anchor="middle" x="1486.3374" y="-275.3" font-family="Times,serif" font-size="14.00" fill="#000000">/bananas/address/</text>
</g>
<!-- 17&#45;&gt;15 -->
<g id="edge15" class="edge">
<title>17&#45;&gt;15</title>
<path fill="none" stroke="#000000" d="M1433.7317,-263.9451C1382.9123,-249.4014 1305.6966,-227.3035 1250.2558,-211.4372"/>
<polygon fill="#000000" stroke="#000000" points="1251.0925,-208.0362 1240.5155,-208.6496 1249.1665,-214.766 1251.0925,-208.0362"/>
<text text-anchor="middle" x="1394.3374" y="-231.8" font-family="Times,serif" font-size="14.00" fill="#000000">HTTP: GET</text>
</g>
<!-- 17&#45;&gt;16 -->
<g id="edge16" class="edge">
<title>17&#45;&gt;16</title>
<path fill="none" stroke="#000000" d="M1486.3374,-260.9735C1486.3374,-249.1918 1486.3374,-233.5607 1486.3374,-220.1581"/>
<polygon fill="#000000" stroke="#000000" points="1489.8375,-220.0033 1486.3374,-210.0034 1482.8375,-220.0034 1489.8375,-220.0033"/>
<text text-anchor="middle" x="1515.3374" y="-231.8" font-family="Times,serif" font-size="14.00" fill="#000000">HTTP: *</text>
</g>
<!-- 18 -->
<g id="node19" class="node">
<title>18</title>
<ellipse fill="none" stroke="#000000" cx="1408.3374" cy="-105" rx="172.7694" ry="18"/>
<text text-anchor="middle" x="1408.3374" y="-101.3" font-family="Times,serif" font-size="14.00" fill="#000000">/bananas/nested/thing/ HTTP: GET</text>
</g>
<!-- 19 -->
<g id="node20" class="node">
<title>19</title>
<ellipse fill="none" stroke="#000000" cx="1756.3374" cy="-105" rx="157.0724" ry="18"/>
<text text-anchor="middle" x="1756.3374" y="-101.3" font-family="Times,serif" font-size="14.00" fill="#000000">/bananas/nested/thing/ HTTP: *</text>
</g>
<!-- 20 -->
<g id="node21" class="node">
<title>20</title>
<ellipse fill="none" stroke="#000000" cx="1756.3374" cy="-192" rx="116.1796" ry="18"/>
<text text-anchor="middle" x="1756.3374" y="-188.3" font-family="Times,serif" font-size="14.00" fill="#000000">/bananas/nested/thing/</text>
</g>
<!-- 20&#45;&gt;18 -->
<g id="edge17" class="edge">
<title>20&#45;&gt;18</title>
<path fill="none" stroke="#000000" d="M1694.923,-176.6464C1636.3947,-162.0143 1548.0829,-139.9364 1484.9725,-124.1588"/>
<polygon fill="#000000" stroke="#000000" points="1485.6188,-120.7127 1475.0685,-121.6828 1483.921,-127.5037 1485.6188,-120.7127"/>
<text text-anchor="middle" x="1644.3374" y="-144.8" font-family="Times,serif" font-size="14.00" fill="#000000">HTTP: GET</text>
</g>
<!-- 20&#45;&gt;19 -->
<g id="edge18" class="edge">
<title>20&#45;&gt;19</title>
<path fill="none" stroke="#000000" d="M1756.3374,-173.9735C1756.3374,-162.1918 1756.3374,-146.5607 1756.3374,-133.1581"/>
<polygon fill="#000000" stroke="#000000" points="1759.8375,-133.0033 1756.3374,-123.0034 1752.8375,-133.0034 1759.8375,-133.0033"/>
<text text-anchor="middle" x="1785.3374" y="-144.8" font-family="Times,serif" font-size="14.00" fill="#000000">HTTP: *</text>
</g>
<!-- 21 -->
<g id="node22" class="node">
<title>21</title>
<ellipse fill="none" stroke="#000000" cx="1756.3374" cy="-279" rx="89.0842" ry="18"/>
<text text-anchor="middle" x="1756.3374" y="-275.3" font-family="Times,serif" font-size="14.00" fill="#000000">/bananas/nested/</text>
</g>
<!-- 21&#45;&gt;20 -->
<g id="edge19" class="edge">
<title>21&#45;&gt;20</title>
<path fill="none" stroke="#000000" d="M1756.3374,-260.9735C1756.3374,-249.1918 1756.3374,-233.5607 1756.3374,-220.1581"/>
<polygon fill="#000000" stroke="#000000" points="1759.8375,-220.0033 1756.3374,-210.0034 1752.8375,-220.0034 1759.8375,-220.0033"/>
<text text-anchor="middle" x="1777.8374" y="-231.8" font-family="Times,serif" font-size="14.00" fill="#000000">/thing</text>
</g>
<!-- 22 -->
<g id="node23" class="node">
<title>22</title>
<ellipse fill="none" stroke="#000000" cx="1874.3374" cy="-18" rx="193.8658" ry="18"/>
<text text-anchor="middle" x="1874.3374" y="-14.3" font-family="Times,serif" font-size="14.00" fill="#000000">/bananas/some/other/thing/ HTTP: GET</text>
</g>
<!-- 23 -->
<g id="node24" class="node">
<title>23</title>
<ellipse fill="none" stroke="#000000" cx="2264.3374" cy="-18" rx="178.1684" ry="18"/>
<text text-anchor="middle" x="2264.3374" y="-14.3" font-family="Times,serif" font-size="14.00" fill="#000000">/bananas/some/other/thing/ HTTP: *</text>
</g>
<!-- 24 -->
<g id="node25" class="node">
<title>24</title>
<ellipse fill="none" stroke="#000000" cx="2069.3374" cy="-105" rx="137.5759" ry="18"/>
<text text-anchor="middle" x="2069.3374" y="-101.3" font-family="Times,serif" font-size="14.00" fill="#000000">/bananas/some/other/thing/</text>
</g>
<!-- 24&#45;&gt;22 -->
<g id="edge20" class="edge">
<title>24&#45;&gt;22</title>
<path fill="none" stroke="#000000" d="M2030.3449,-87.6033C1999.5926,-73.8831 1956.5176,-54.665 1923.4193,-39.8981"/>
<polygon fill="#000000" stroke="#000000" points="1924.4891,-36.5429 1913.9307,-35.6647 1921.6369,-42.9355 1924.4891,-36.5429"/>
<text text-anchor="middle" x="2025.3374" y="-57.8" font-family="Times,serif" font-size="14.00" fill="#000000">HTTP: GET</text>
</g>
<!-- 24&#45;&gt;23 -->
<g id="edge21" class="edge">
<title>24&#45;&gt;23</title>
<path fill="none" stroke="#000000" d="M2108.3299,-87.6033C2139.0821,-73.8831 2182.1571,-54.665 2215.2555,-39.8981"/>
<polygon fill="#000000" stroke="#000000" points="2217.0378,-42.9355 2224.7441,-35.6647 2214.1857,-36.5429 2217.0378,-42.9355"/>
<text text-anchor="middle" x="2208.3374" y="-57.8" font-family="Times,serif" font-size="14.00" fill="#000000">HTTP: *</text>
</g>
<!-- 25 -->
<g id="node26" class="node">
<title>25</title>
<ellipse fill="none" stroke="#000000" cx="2001.3374" cy="-192" rx="110.4804" ry="18"/>
<text text-anchor="middle" x="2001.3374" y="-188.3" font-family="Times,serif" font-size="14.00" fill="#000000">/bananas/some/other/</text>
</g>
<!-- 25&#45;&gt;24 -->
<g id="edge22" class="edge">
<title>25&#45;&gt;24</title>
<path fill="none" stroke="#000000" d="M2015.427,-173.9735C2025.0916,-161.6085 2038.0702,-145.0036 2048.8712,-131.1847"/>
<polygon fill="#000000" stroke="#000000" points="2051.8652,-133.0376 2055.2658,-123.0034 2046.3499,-128.7269 2051.8652,-133.0376"/>
<text text-anchor="middle" x="2061.8374" y="-144.8" font-family="Times,serif" font-size="14.00" fill="#000000">/thing</text>
</g>
<!-- 26 -->
<g id="node27" class="node">
<title>26</title>
<ellipse fill="none" stroke="#000000" cx="1946.3374" cy="-279" rx="82.5854" ry="18"/>
<text text-anchor="middle" x="1946.3374" y="-275.3" font-family="Times,serif" font-size="14.00" fill="#000000">/bananas/some/</text>
</g>
<!-- 26&#45;&gt;25 -->
<g id="edge23" class="edge">
<title>26&#45;&gt;25</title>
<path fill="none" stroke="#000000" d="M1957.7334,-260.9735C1965.4766,-248.7252 1975.8499,-232.3165 1984.5361,-218.5766"/>
<polygon fill="#000000" stroke="#000000" points="1987.5707,-220.3262 1989.9559,-210.0034 1981.6539,-216.5857 1987.5707,-220.3262"/>
<text text-anchor="middle" x="1998.8374" y="-231.8" font-family="Times,serif" font-size="14.00" fill="#000000">/other</text>
</g>
<!-- 27 -->
<g id="node28" class="node">
<title>27</title>
<ellipse fill="none" stroke="#000000" cx="2158.3374" cy="-279" rx="111.2805" ry="18"/>
<text text-anchor="middle" x="2158.3374" y="-275.3" font-family="Times,serif" font-size="14.00" fill="#000000">/bananas/ HTTP: GET</text>
</g>
<!-- 28 -->
<g id="node29" class="node">
<title>28</title>
<ellipse fill="none" stroke="#000000" cx="2383.3374" cy="-279" rx="95.5831" ry="18"/>
<text text-anchor="middle" x="2383.3374" y="-275.3" font-family="Times,serif" font-size="14.00" fill="#000000">/bananas/ HTTP: *</text>
</g>
<!-- 29 -->
<g id="node30" class="node">
<title>29</title>
<ellipse fill="none" stroke="#000000" cx="2097.3374" cy="-366" rx="55.4913" ry="18"/>
<text text-anchor="middle" x="2097.3374" y="-362.3" font-family="Times,serif" font-size="14.00" fill="#000000">/bananas/</text>
</g>
<!-- 29&#45;&gt;17 -->
<g id="edge24" class="edge">
<title>29&#45;&gt;17</title>
<path fill="none" stroke="#000000" d="M2046.5323,-358.8586C1995.0641,-351.6167 1913.1605,-340.0723 1842.3374,-330 1749.9433,-316.86 1644.0805,-301.6781 1571.9739,-291.3181"/>
<polygon fill="#000000" stroke="#000000" points="1572.4245,-287.847 1562.0283,-289.889 1571.4288,-294.7758 1572.4245,-287.847"/>
<text text-anchor="middle" x="1872.8374" y="-318.8" font-family="Times,serif" font-size="14.00" fill="#000000">/address</text>
</g>
<!-- 29&#45;&gt;21 -->
<g id="edge25" class="edge">
<title>29&#45;&gt;21</title>
<path fill="none" stroke="#000000" d="M2053.8031,-354.893C1995.0189,-339.8953 1889.7811,-313.0458 1821.536,-295.6342"/>
<polygon fill="#000000" stroke="#000000" points="1822.3002,-292.2172 1811.7453,-293.1363 1820.5697,-298.9999 1822.3002,-292.2172"/>
<text text-anchor="middle" x="1973.8374" y="-318.8" font-family="Times,serif" font-size="14.00" fill="#000000">/nested</text>
</g>
<!-- 29&#45;&gt;26 -->
<g id="edge26" class="edge">
<title>29&#45;&gt;26</title>
<path fill="none" stroke="#000000" d="M2069.9924,-350.245C2046.0927,-336.475 2011.144,-316.3389 1984.4931,-300.9838"/>
<polygon fill="#000000" stroke="#000000" points="1986.2131,-297.9354 1975.801,-295.9758 1982.7185,-304.0007 1986.2131,-297.9354"/>
<text text-anchor="middle" x="2052.8374" y="-318.8" font-family="Times,serif" font-size="14.00" fill="#000000">/some</text>
</g>
<!-- 29&#45;&gt;27 -->
<g id="edge27" class="edge">
<title>29&#45;&gt;27</title>
<path fill="none" stroke="#000000" d="M2109.6816,-348.3943C2118.3305,-336.0589 2130.0419,-319.3558 2139.8074,-305.428"/>
<polygon fill="#000000" stroke="#000000" points="2142.7163,-307.3757 2145.5916,-297.1785 2136.9848,-303.357 2142.7163,-307.3757"/>
<text text-anchor="middle" x="2173.3374" y="-318.8" font-family="Times,serif" font-size="14.00" fill="#000000">HTTP: GET</text>
</g>
<!-- 29&#45;&gt;28 -->
<g id="edge28" class="edge">
<title>29&#45;&gt;28</title>
<path fill="none" stroke="#000000" d="M2138.533,-353.8611C2161.9498,-346.9315 2191.8058,-338.0469 2218.3374,-330 2253.4188,-319.3599 2292.6279,-307.2498 2324.0195,-297.501"/>
<polygon fill="#000000" stroke="#000000" points="2325.411,-300.7338 2333.9217,-294.4237 2323.3335,-294.0492 2325.411,-300.7338"/>
<text text-anchor="middle" x="2293.3374" y="-318.8" font-family="Times,serif" font-size="14.00" fill="#000000">HTTP: *</text>
</g>
<!-- 30 -->
<g id="node31" class="node">
<title>30</title>
<ellipse fill="none" stroke="#000000" cx="2269.3374" cy="-192" rx="139.9756" ry="18"/>
<text text-anchor="middle" x="2269.3374" y="-188.3" font-family="Times,serif" font-size="14.00" fill="#000000">/graph/address/ HTTP: GET</text>
</g>
<!-- 31 -->
<g id="node32" class="node">
<title>31</title>
<ellipse fill="none" stroke="#000000" cx="2551.3374" cy="-192" rx="124.2781" ry="18"/>
<text text-anchor="middle" x="2551.3374" y="-188.3" font-family="Times,serif" font-size="14.00" fill="#000000">/graph/address/ HTTP: *</text>
</g>
<!-- 32 -->
<g id="node33" class="node">
<title>32</title>
<ellipse fill="none" stroke="#000000" cx="2580.3374" cy="-279" rx="83.3857" ry="18"/>
<text text-anchor="middle" x="2580.3374" y="-275.3" font-family="Times,serif" font-size="14.00" fill="#000000">/graph/address/</text>
</g>
<!-- 32&#45;&gt;30 -->
<g id="edge29" class="edge">
<title>32&#45;&gt;30</title>
<path fill="none" stroke="#000000" d="M2529.3303,-264.7311C2477.0394,-250.1031 2395.4072,-227.2671 2337.5802,-211.0904"/>
<polygon fill="#000000" stroke="#000000" points="2338.3666,-207.6761 2327.7934,-208.3527 2336.4808,-214.4173 2338.3666,-207.6761"/>
<text text-anchor="middle" x="2485.3374" y="-231.8" font-family="Times,serif" font-size="14.00" fill="#000000">HTTP: GET</text>
</g>
<!-- 32&#45;&gt;31 -->
<g id="edge30" class="edge">
<title>32&#45;&gt;31</title>
<path fill="none" stroke="#000000" d="M2574.3286,-260.9735C2570.3624,-249.0751 2565.0876,-233.2508 2560.5909,-219.7606"/>
<polygon fill="#000000" stroke="#000000" points="2563.8212,-218.3834 2557.3385,-210.0034 2557.1804,-220.597 2563.8212,-218.3834"/>
<text text-anchor="middle" x="2597.3374" y="-231.8" font-family="Times,serif" font-size="14.00" fill="#000000">HTTP: *</text>
</g>
<!-- 33 -->
<g id="node34" class="node">
<title>33</title>
<ellipse fill="none" stroke="#000000" cx="2473.3374" cy="-105" rx="161.3716" ry="18"/>
<text text-anchor="middle" x="2473.3374" y="-101.3" font-family="Times,serif" font-size="14.00" fill="#000000">/graph/nested/thing/ HTTP: GET</text>
</g>
<!-- 34 -->
<g id="node35" class="node">
<title>34</title>
<ellipse fill="none" stroke="#000000" cx="2798.3374" cy="-105" rx="145.6742" ry="18"/>
<text text-anchor="middle" x="2798.3374" y="-101.3" font-family="Times,serif" font-size="14.00" fill="#000000">/graph/nested/thing/ HTTP: *</text>
</g>
<!-- 35 -->
<g id="node36" class="node">
<title>35</title>
<ellipse fill="none" stroke="#000000" cx="2798.3374" cy="-192" rx="105.0817" ry="18"/>
<text text-anchor="middle" x="2798.3374" y="-188.3" font-family="Times,serif" font-size="14.00" fill="#000000">/graph/nested/thing/</text>
</g>
<!-- 35&#45;&gt;33 -->
<g id="edge31" class="edge">
<title>35&#45;&gt;33</title>
<path fill="none" stroke="#000000" d="M2741.3548,-176.7462C2686.8876,-162.1657 2604.556,-140.1262 2545.5247,-124.324"/>
<polygon fill="#000000" stroke="#000000" points="2546.0884,-120.8517 2535.5235,-121.6467 2544.2783,-127.6136 2546.0884,-120.8517"/>
<text text-anchor="middle" x="2696.3374" y="-144.8" font-family="Times,serif" font-size="14.00" fill="#000000">HTTP: GET</text>
</g>
<!-- 35&#45;&gt;34 -->
<g id="edge32" class="edge">
<title>35&#45;&gt;34</title>
<path fill="none" stroke="#000000" d="M2798.3374,-173.9735C2798.3374,-162.1918 2798.3374,-146.5607 2798.3374,-133.1581"/>
<polygon fill="#000000" stroke="#000000" points="2801.8375,-133.0033 2798.3374,-123.0034 2794.8375,-133.0034 2801.8375,-133.0033"/>
<text text-anchor="middle" x="2827.3374" y="-144.8" font-family="Times,serif" font-size="14.00" fill="#000000">HTTP: *</text>
</g>
<!-- 36 -->
<g id="node37" class="node">
<title>36</title>
<ellipse fill="none" stroke="#000000" cx="2769.3374" cy="-279" rx="77.9862" ry="18"/>
<text text-anchor="middle" x="2769.3374" y="-275.3" font-family="Times,serif" font-size="14.00" fill="#000000">/graph/nested/</text>
</g>
<!-- 36&#45;&gt;35 -->
<g id="edge33" class="edge">
<title>36&#45;&gt;35</title>
<path fill="none" stroke="#000000" d="M2775.3462,-260.9735C2779.3123,-249.0751 2784.5871,-233.2508 2789.0838,-219.7606"/>
<polygon fill="#000000" stroke="#000000" points="2792.4943,-220.597 2792.3362,-210.0034 2785.8535,-218.3834 2792.4943,-220.597"/>
<text text-anchor="middle" x="2807.8374" y="-231.8" font-family="Times,serif" font-size="14.00" fill="#000000">/thing</text>
</g>
<!-- 37 -->
<g id="node38" class="node">
<title>37</title>
<ellipse fill="none" stroke="#000000" cx="2995.3374" cy="-18" rx="182.7677" ry="18"/>
<text text-anchor="middle" x="2995.3374" y="-14.3" font-family="Times,serif" font-size="14.00" fill="#000000">/graph/some/other/thing/ HTTP: GET</text>
</g>
<!-- 38 -->
<g id="node39" class="node">
<title>38</title>
<ellipse fill="none" stroke="#000000" cx="3363.3374" cy="-18" rx="167.0704" ry="18"/>
<text text-anchor="middle" x="3363.3374" y="-14.3" font-family="Times,serif" font-size="14.00" fill="#000000">/graph/some/other/thing/ HTTP: *</text>
</g>
<!-- 39 -->
<g id="node40" class="node">
<title>39</title>
<ellipse fill="none" stroke="#000000" cx="3088.3374" cy="-105" rx="126.1777" ry="18"/>
<text text-anchor="middle" x="3088.3374" y="-101.3" font-family="Times,serif" font-size="14.00" fill="#000000">/graph/some/other/thing/</text>
</g>
<!-- 39&#45;&gt;37 -->
<g id="edge34" class="edge">
<title>39&#45;&gt;37</title>
<path fill="none" stroke="#000000" d="M3069.0677,-86.9735C3055.4758,-74.2586 3037.0915,-57.0603 3022.081,-43.0183"/>
<polygon fill="#000000" stroke="#000000" points="3024.2761,-40.279 3014.5823,-36.0034 3019.494,-45.3909 3024.2761,-40.279"/>
<text text-anchor="middle" x="3089.3374" y="-57.8" font-family="Times,serif" font-size="14.00" fill="#000000">HTTP: GET</text>
</g>
<!-- 39&#45;&gt;38 -->
<g id="edge35" class="edge">
<title>39&#45;&gt;38</title>
<path fill="none" stroke="#000000" d="M3140.3861,-88.5337C3185.5461,-74.2467 3251.0808,-53.5139 3299.4179,-38.2218"/>
<polygon fill="#000000" stroke="#000000" points="3300.6726,-41.4959 3309.1511,-35.1426 3298.5612,-34.8219 3300.6726,-41.4959"/>
<text text-anchor="middle" x="3271.3374" y="-57.8" font-family="Times,serif" font-size="14.00" fill="#000000">HTTP: *</text>
</g>
<!-- 40 -->
<g id="node41" class="node">
<title>40</title>
<ellipse fill="none" stroke="#000000" cx="3020.3374" cy="-192" rx="98.5829" ry="18"/>
<text text-anchor="middle" x="3020.3374" y="-188.3" font-family="Times,serif" font-size="14.00" fill="#000000">/graph/some/other/</text>
</g>
<!-- 40&#45;&gt;39 -->
<g id="edge36" class="edge">
<title>40&#45;&gt;39</title>
<path fill="none" stroke="#000000" d="M3034.427,-173.9735C3044.0916,-161.6085 3057.0702,-145.0036 3067.8712,-131.1847"/>
<polygon fill="#000000" stroke="#000000" points="3070.8652,-133.0376 3074.2658,-123.0034 3065.3499,-128.7269 3070.8652,-133.0376"/>
<text text-anchor="middle" x="3080.8374" y="-144.8" font-family="Times,serif" font-size="14.00" fill="#000000">/thing</text>
</g>
<!-- 41 -->
<g id="node42" class="node">
<title>41</title>
<ellipse fill="none" stroke="#000000" cx="2936.3374" cy="-279" rx="71.4873" ry="18"/>
<text text-anchor="middle" x="2936.3374" y="-275.3" font-family="Times,serif" font-size="14.00" fill="#000000">/graph/some/</text>
</g>
<!-- 41&#45;&gt;40 -->
<g id="edge37" class="edge">
<title>41&#45;&gt;40</title>
<path fill="none" stroke="#000000" d="M2953.336,-261.3943C2965.5516,-248.7424 2982.2036,-231.4957 2995.8505,-217.3614"/>
<polygon fill="#000000" stroke="#000000" points="2998.6476,-219.5033 3003.0757,-209.8782 2993.6118,-214.6411 2998.6476,-219.5033"/>
<text text-anchor="middle" x="3005.8374" y="-231.8" font-family="Times,serif" font-size="14.00" fill="#000000">/other</text>
</g>
<!-- 42 -->
<g id="node43" class="node">
<title>42</title>
<ellipse fill="none" stroke="#000000" cx="3126.3374" cy="-279" rx="100.1823" ry="18"/>
<text text-anchor="middle" x="3126.3374" y="-275.3" font-family="Times,serif" font-size="14.00" fill="#000000">/graph/ HTTP: GET</text>
</g>
<!-- 43 -->
<g id="node44" class="node">
<title>43</title>
<ellipse fill="none" stroke="#000000" cx="3329.3374" cy="-279" rx="84.485" ry="18"/>
<text text-anchor="middle" x="3329.3374" y="-275.3" font-family="Times,serif" font-size="14.00" fill="#000000">/graph/ HTTP: *</text>
</g>
<!-- 44 -->
<g id="node45" class="node">
<title>44</title>
<ellipse fill="none" stroke="#000000" cx="2852.3374" cy="-366" rx="44.393" ry="18"/>
<text text-anchor="middle" x="2852.3374" y="-362.3" font-family="Times,serif" font-size="14.00" fill="#000000">/graph/</text>
</g>
<!-- 44&#45;&gt;32 -->
<g id="edge38" class="edge">
<title>44&#45;&gt;32</title>
<path fill="none" stroke="#000000" d="M2817.335,-354.8044C2771.6796,-340.2014 2691.2357,-314.4711 2636.8772,-297.0844"/>
<polygon fill="#000000" stroke="#000000" points="2637.636,-293.6525 2627.0451,-293.9396 2635.5034,-300.3198 2637.636,-293.6525"/>
<text text-anchor="middle" x="2763.8374" y="-318.8" font-family="Times,serif" font-size="14.00" fill="#000000">/address</text>
</g>
<!-- 44&#45;&gt;36 -->
<g id="edge39" class="edge">
<title>44&#45;&gt;36</title>
<path fill="none" stroke="#000000" d="M2835.9392,-348.8116C2823.8212,-336.1096 2807.1293,-318.6133 2793.4877,-304.3142"/>
<polygon fill="#000000" stroke="#000000" points="2795.7065,-301.5695 2786.2713,-296.75 2790.6417,-306.4014 2795.7065,-301.5695"/>
<text text-anchor="middle" x="2842.8374" y="-318.8" font-family="Times,serif" font-size="14.00" fill="#000000">/nested</text>
</g>
<!-- 44&#45;&gt;41 -->
<g id="edge40" class="edge">
<title>44&#45;&gt;41</title>
<path fill="none" stroke="#000000" d="M2868.5334,-349.2255C2880.9564,-336.3589 2898.2969,-318.399 2912.3317,-303.863"/>
<polygon fill="#000000" stroke="#000000" points="2914.898,-306.244 2919.3261,-296.6188 2909.8622,-301.3818 2914.898,-306.244"/>
<text text-anchor="middle" x="2921.8374" y="-318.8" font-family="Times,serif" font-size="14.00" fill="#000000">/some</text>
</g>
<!-- 44&#45;&gt;42 -->
<g id="edge41" class="edge">
<title>44&#45;&gt;42</title>
<path fill="none" stroke="#000000" d="M2887.318,-354.893C2932.6392,-340.5027 3012.3245,-315.2012 3067.1446,-297.7948"/>
<polygon fill="#000000" stroke="#000000" points="3068.2654,-301.1112 3076.7373,-294.7489 3066.1469,-294.4394 3068.2654,-301.1112"/>
<text text-anchor="middle" x="3047.3374" y="-318.8" font-family="Times,serif" font-size="14.00" fill="#000000">HTTP: GET</text>
</g>
<!-- 44&#45;&gt;43 -->
<g id="edge42" class="edge">
<title>44&#45;&gt;43</title>
<path fill="none" stroke="#000000" d="M2894.524,-360.4921C2942.5607,-354.0303 3023.325,-342.5884 3092.3374,-330 3149.9333,-319.4941 3214.9135,-305.3472 3262.247,-294.6182"/>
<polygon fill="#000000" stroke="#000000" points="3263.0963,-298.0145 3272.0706,-292.3832 3261.5433,-291.1889 3263.0963,-298.0145"/>
<text text-anchor="middle" x="3193.3374" y="-318.8" font-family="Times,serif" font-size="14.00" fill="#000000">HTTP: *</text>
</g>
<!-- 45 -->
<g id="node46" class="node">
<title>45</title>
<ellipse fill="none" stroke="#000000" cx="3269.3374" cy="-192" rx="132.6765" ry="18"/>
<text text-anchor="middle" x="3269.3374" y="-188.3" font-family="Times,serif" font-size="14.00" fill="#000000">/{...}/address/ HTTP: GET</text>
</g>
<!-- 46 -->
<g id="node47" class="node">
<title>46</title>
<ellipse fill="none" stroke="#000000" cx="3537.3374" cy="-192" rx="116.9792" ry="18"/>
<text text-anchor="middle" x="3537.3374" y="-188.3" font-family="Times,serif" font-size="14.00" fill="#000000">/{...}/address/ HTTP: *</text>
</g>
<!-- 47 -->
<g id="node48" class="node">
<title>47</title>
<ellipse fill="none" stroke="#000000" cx="3537.3374" cy="-279" rx="76.8869" ry="18"/>
<text text-anchor="middle" x="3537.3374" y="-275.3" font-family="Times,serif" font-size="14.00" fill="#000000">/{...}/address/</text>
</g>
<!-- 47&#45;&gt;45 -->
<g id="edge43" class="edge">
<title>47&#45;&gt;45</title>
<path fill="none" stroke="#000000" d="M3492.1779,-264.34C3447.7049,-249.9029 3379.4701,-227.752 3330.2236,-211.7653"/>
<polygon fill="#000000" stroke="#000000" points="3331.2323,-208.413 3320.6402,-208.6543 3329.0709,-215.071 3331.2323,-208.413"/>
<text text-anchor="middle" x="3461.3374" y="-231.8" font-family="Times,serif" font-size="14.00" fill="#000000">HTTP: GET</text>
</g>
<!-- 47&#45;&gt;46 -->
<g id="edge44" class="edge">
<title>47&#45;&gt;46</title>
<path fill="none" stroke="#000000" d="M3537.3374,-260.9735C3537.3374,-249.1918 3537.3374,-233.5607 3537.3374,-220.1581"/>
<polygon fill="#000000" stroke="#000000" points="3540.8375,-220.0033 3537.3374,-210.0034 3533.8375,-220.0034 3540.8375,-220.0033"/>
<text text-anchor="middle" x="3566.3374" y="-231.8" font-family="Times,serif" font-size="14.00" fill="#000000">HTTP: *</text>
</g>
<!-- 48 -->
<g id="node49" class="node">
<title>48</title>
<ellipse fill="none" stroke="#000000" cx="3459.3374" cy="-105" rx="154.8728" ry="18"/>
<text text-anchor="middle" x="3459.3374" y="-101.3" font-family="Times,serif" font-size="14.00" fill="#000000">/{...}/nested/thing/ HTTP: GET</text>
</g>
<!-- 49 -->
<g id="node50" class="node">
<title>49</title>
<ellipse fill="none" stroke="#000000" cx="3771.3374" cy="-105" rx="139.1754" ry="18"/>
<text text-anchor="middle" x="3771.3374" y="-101.3" font-family="Times,serif" font-size="14.00" fill="#000000">/{...}/nested/thing/ HTTP: *</text>
</g>
<!-- 50 -->
<g id="node51" class="node">
<title>50</title>
<ellipse fill="none" stroke="#000000" cx="3771.3374" cy="-192" rx="98.5829" ry="18"/>
<text text-anchor="middle" x="3771.3374" y="-188.3" font-family="Times,serif" font-size="14.00" fill="#000000">/{...}/nested/thing/</text>
</g>
<!-- 50&#45;&gt;48 -->
<g id="edge45" class="edge">
<title>50&#45;&gt;48</title>
<path fill="none" stroke="#000000" d="M3716.9911,-176.8458C3664.8632,-162.3101 3585.9132,-140.2952 3529.1506,-124.4671"/>
<polygon fill="#000000" stroke="#000000" points="3529.7495,-121.0007 3519.1768,-121.686 3527.8692,-127.7434 3529.7495,-121.0007"/>
<text text-anchor="middle" x="3675.3374" y="-144.8" font-family="Times,serif" font-size="14.00" fill="#000000">HTTP: GET</text>
</g>
<!-- 50&#45;&gt;49 -->
<g id="edge46" class="edge">
<title>50&#45;&gt;49</title>
<path fill="none" stroke="#000000" d="M3771.3374,-173.9735C3771.3374,-162.1918 3771.3374,-146.5607 3771.3374,-133.1581"/>
<polygon fill="#000000" stroke="#000000" points="3774.8375,-133.0033 3771.3374,-123.0034 3767.8375,-133.0034 3774.8375,-133.0033"/>
<text text-anchor="middle" x="3800.3374" y="-144.8" font-family="Times,serif" font-size="14.00" fill="#000000">HTTP: *</text>
</g>
<!-- 51 -->
<g id="node52" class="node">
<title>51</title>
<ellipse fill="none" stroke="#000000" cx="3720.3374" cy="-279" rx="71.4873" ry="18"/>
<text text-anchor="middle" x="3720.3374" y="-275.3" font-family="Times,serif" font-size="14.00" fill="#000000">/{...}/nested/</text>
</g>
<!-- 51&#45;&gt;50 -->
<g id="edge47" class="edge">
<title>51&#45;&gt;50</title>
<path fill="none" stroke="#000000" d="M3730.9046,-260.9735C3738.0163,-248.8418 3747.5206,-232.6287 3755.5275,-218.9698"/>
<polygon fill="#000000" stroke="#000000" points="3758.7459,-220.4004 3760.7837,-210.0034 3752.707,-216.8603 3758.7459,-220.4004"/>
<text text-anchor="middle" x="3770.8374" y="-231.8" font-family="Times,serif" font-size="14.00" fill="#000000">/thing</text>
</g>
<!-- 52 -->
<g id="node53" class="node">
<title>52</title>
<ellipse fill="none" stroke="#000000" cx="3788.3374" cy="-18" rx="175.4689" ry="18"/>
<text text-anchor="middle" x="3788.3374" y="-14.3" font-family="Times,serif" font-size="14.00" fill="#000000">/{...}/some/other/thing/ HTTP: GET</text>
</g>
<!-- 53 -->
<g id="node54" class="node">
<title>53</title>
<ellipse fill="none" stroke="#000000" cx="4141.3374" cy="-18" rx="159.7717" ry="18"/>
<text text-anchor="middle" x="4141.3374" y="-14.3" font-family="Times,serif" font-size="14.00" fill="#000000">/{...}/some/other/thing/ HTTP: *</text>
</g>
<!-- 54 -->
<g id="node55" class="node">
<title>54</title>
<ellipse fill="none" stroke="#000000" cx="4048.3374" cy="-105" rx="119.6788" ry="18"/>
<text text-anchor="middle" x="4048.3374" y="-101.3" font-family="Times,serif" font-size="14.00" fill="#000000">/{...}/some/other/thing/</text>
</g>
<!-- 54&#45;&gt;52 -->
<g id="edge48" class="edge">
<title>54&#45;&gt;52</title>
<path fill="none" stroke="#000000" d="M3999.1277,-88.5337C3956.7464,-74.3523 3895.3853,-53.8199 3849.7858,-38.5616"/>
<polygon fill="#000000" stroke="#000000" points="3850.6103,-35.1468 3840.0165,-35.2926 3848.389,-41.785 3850.6103,-35.1468"/>
<text text-anchor="middle" x="3975.3374" y="-57.8" font-family="Times,serif" font-size="14.00" fill="#000000">HTTP: GET</text>
</g>
<!-- 54&#45;&gt;53 -->
<g id="edge49" class="edge">
<title>54&#45;&gt;53</title>
<path fill="none" stroke="#000000" d="M4067.607,-86.9735C4081.1989,-74.2586 4099.5833,-57.0603 4114.5937,-43.0183"/>
<polygon fill="#000000" stroke="#000000" points="4117.1807,-45.3909 4122.0924,-36.0034 4112.3986,-40.279 4117.1807,-45.3909"/>
<text text-anchor="middle" x="4130.3374" y="-57.8" font-family="Times,serif" font-size="14.00" fill="#000000">HTTP: *</text>
</g>
<!-- 55 -->
<g id="node56" class="node">
<title>55</title>
<ellipse fill="none" stroke="#000000" cx="4014.3374" cy="-192" rx="92.0841" ry="18"/>
<text text-anchor="middle" x="4014.3374" y="-188.3" font-family="Times,serif" font-size="14.00" fill="#000000">/{...}/some/other/</text>
</g>
<!-- 55&#45;&gt;54 -->
<g id="edge50" class="edge">
<title>55&#45;&gt;54</title>
<path fill="none" stroke="#000000" d="M4021.3822,-173.9735C4026.0777,-161.9585 4032.3378,-145.9401 4037.6432,-132.3646"/>
<polygon fill="#000000" stroke="#000000" points="4040.9215,-133.5914 4041.3016,-123.0034 4034.4016,-131.0434 4040.9215,-133.5914"/>
<text text-anchor="middle" x="4055.8374" y="-144.8" font-family="Times,serif" font-size="14.00" fill="#000000">/thing</text>
</g>
<!-- 56 -->
<g id="node57" class="node">
<title>56</title>
<ellipse fill="none" stroke="#000000" cx="3874.3374" cy="-279" rx="64.189" ry="18"/>
<text text-anchor="middle" x="3874.3374" y="-275.3" font-family="Times,serif" font-size="14.00" fill="#000000">/{...}/some/</text>
</g>
<!-- 56&#45;&gt;55 -->
<g id="edge51" class="edge">
<title>56&#45;&gt;55</title>
<path fill="none" stroke="#000000" d="M3900.9998,-262.4312C3922.7625,-248.9072 3953.7388,-229.6577 3977.8092,-214.6997"/>
<polygon fill="#000000" stroke="#000000" points="3979.6887,-217.6525 3986.3349,-209.4015 3975.9939,-211.707 3979.6887,-217.6525"/>
<text text-anchor="middle" x="3974.8374" y="-231.8" font-family="Times,serif" font-size="14.00" fill="#000000">/other</text>
</g>
<!-- 57 -->
<g id="node58" class="node">
<title>57</title>
<ellipse fill="none" stroke="#000000" cx="4049.3374" cy="-279" rx="92.8835" ry="18"/>
<text text-anchor="middle" x="4049.3374" y="-275.3" font-family="Times,serif" font-size="14.00" fill="#000000">/{...}/ HTTP: GET</text>
</g>
<!-- 58 -->
<g id="node59" class="node">
<title>58</title>
<ellipse fill="none" stroke="#000000" cx="4237.3374" cy="-279" rx="77.1866" ry="18"/>
<text text-anchor="middle" x="4237.3374" y="-275.3" font-family="Times,serif" font-size="14.00" fill="#000000">/{...}/ HTTP: *</text>
</g>
<!-- 59 -->
<g id="node60" class="node">
<title>59</title>
<ellipse fill="none" stroke="#000000" cx="3797.3374" cy="-366" rx="37.0935" ry="18"/>
<text text-anchor="middle" x="3797.3374" y="-362.3" font-family="Times,serif" font-size="14.00" fill="#000000">/{...}/</text>
</g>
<!-- 59&#45;&gt;47 -->
<g id="edge52" class="edge">
<title>59&#45;&gt;47</title>
<path fill="none" stroke="#000000" d="M3766.6074,-355.7746C3744.9923,-348.5778 3715.3913,-338.7132 3689.3374,-330 3656.727,-319.0941 3620.1943,-306.8377 3591.1185,-297.0737"/>
<polygon fill="#000000" stroke="#000000" points="3592.1543,-293.7295 3581.5603,-293.8636 3589.9256,-300.3653 3592.1543,-293.7295"/>
<text text-anchor="middle" x="3719.8374" y="-318.8" font-family="Times,serif" font-size="14.00" fill="#000000">/address</text>
</g>
<!-- 59&#45;&gt;51 -->
<g id="edge53" class="edge">
<title>59&#45;&gt;51</title>
<path fill="none" stroke="#000000" d="M3782.491,-349.2255C3771.2077,-336.4769 3755.4991,-318.7282 3742.6974,-304.264"/>
<polygon fill="#000000" stroke="#000000" points="3745.1796,-301.7875 3735.9311,-296.6188 3739.9378,-306.4269 3745.1796,-301.7875"/>
<text text-anchor="middle" x="3790.8374" y="-318.8" font-family="Times,serif" font-size="14.00" fill="#000000">/nested</text>
</g>
<!-- 59&#45;&gt;56 -->
<g id="edge54" class="edge">
<title>59&#45;&gt;56</title>
<path fill="none" stroke="#000000" d="M3812.1837,-349.2255C3823.467,-336.4769 3839.1757,-318.7282 3851.9773,-304.264"/>
<polygon fill="#000000" stroke="#000000" points="3854.737,-306.4269 3858.7437,-296.6188 3849.4951,-301.7875 3854.737,-306.4269"/>
<text text-anchor="middle" x="3862.8374" y="-318.8" font-family="Times,serif" font-size="14.00" fill="#000000">/some</text>
</g>
<!-- 59&#45;&gt;57 -->
<g id="edge55" class="edge">
<title>59&#45;&gt;57</title>
<path fill="none" stroke="#000000" d="M3827.7345,-355.5058C3868.8101,-341.3249 3942.7694,-315.7913 3993.8799,-298.146"/>
<polygon fill="#000000" stroke="#000000" points="3995.152,-301.4097 4003.4623,-294.8378 3992.8675,-294.7929 3995.152,-301.4097"/>
<text text-anchor="middle" x="3980.3374" y="-318.8" font-family="Times,serif" font-size="14.00" fill="#000000">HTTP: GET</text>
</g>
<!-- 59&#45;&gt;58 -->
<g id="edge56" class="edge">
<title>59&#45;&gt;58</title>
<path fill="none" stroke="#000000" d="M3833.4294,-361.2048C3878.5136,-355.0075 3957.9314,-343.4073 4025.3374,-330 4076.5526,-319.8131 4134.1273,-305.7969 4176.3382,-295.0357"/>
<polygon fill="#000000" stroke="#000000" points="4177.364,-298.386 4186.1827,-292.514 4175.6269,-291.605 4177.364,-298.386"/>
<text text-anchor="middle" x="4119.3374" y="-318.8" font-family="Times,serif" font-size="14.00" fill="#000000">HTTP: *</text>
</g>
<!-- 60 -->
<g id="node61" class="node">
<title>60</title>
<ellipse fill="none" stroke="#000000" cx="2486.3374" cy="-453" rx="27" ry="18"/>
<text text-anchor="middle" x="2486.3374" y="-449.3" font-family="Times,serif" font-size="14.00" fill="#000000">/</text>
</g>
<!-- 60&#45;&gt;14 -->
<g id="edge57" class="edge">
<title>60&#45;&gt;14</title>
<path fill="none" stroke="#000000" d="M2459.1761,-451.3969C2284.1442,-441.0659 1314.7455,-383.8491 1068.9847,-369.3435"/>
<polygon fill="#000000" stroke="#000000" points="1069.0359,-365.8405 1058.8471,-368.7451 1068.6234,-372.8284 1069.0359,-365.8405"/>
<text text-anchor="middle" x="1864.3374" y="-405.8" font-family="Times,serif" font-size="14.00" fill="#000000">/apples</text>
</g>
<!-- 60&#45;&gt;29 -->
<g id="edge58" class="edge">
<title>60&#45;&gt;29</title>
<path fill="none" stroke="#000000" d="M2460.5127,-447.2243C2398.1598,-433.2791 2238.2478,-397.5147 2152.9243,-378.432"/>
<polygon fill="#000000" stroke="#000000" points="2153.6738,-375.0133 2143.1509,-376.2462 2152.1459,-381.8445 2153.6738,-375.0133"/>
<text text-anchor="middle" x="2347.3374" y="-405.8" font-family="Times,serif" font-size="14.00" fill="#000000">/bananas</text>
</g>
<!-- 60&#45;&gt;44 -->
<g id="edge59" class="edge">
<title>60&#45;&gt;44</title>
<path fill="none" stroke="#000000" d="M2511.7832,-446.9514C2572.2122,-432.5871 2725.1651,-396.2295 2803.8859,-377.5171"/>
<polygon fill="#000000" stroke="#000000" points="2805.1057,-380.8248 2814.0251,-375.107 2803.4868,-374.0146 2805.1057,-380.8248"/>
<text text-anchor="middle" x="2714.8374" y="-405.8" font-family="Times,serif" font-size="14.00" fill="#000000">/graph</text>
</g>
<!-- 60&#45;&gt;59 -->
<g id="edge60" class="edge">
<title>60&#45;&gt;59</title>
<path fill="none" stroke="#000000" d="M2513.4185,-451.2029C2677.5458,-440.3111 3539.0618,-383.1396 3750.4646,-369.1106"/>
<polygon fill="#000000" stroke="#000000" points="3750.8626,-372.5919 3760.6088,-368.4374 3750.399,-365.6073 3750.8626,-372.5919"/>
<text text-anchor="middle" x="3226.8374" y="-405.8" font-family="Times,serif" font-size="14.00" fill="#000000">/*</text>
</g>
</g>
</svg>
